<svg preserveAspectRatio="none" width="100%" height="100%" overflow="visible" style="display: block;" viewBox="0 0 16 16" fill="none" xmlns="http://www.w3.org/2000/svg">
<path id="Vector" d="M14.3333 7.66667H12.68C12.3886 7.66604 12.1051 7.76087 11.8727 7.93665C11.6404 8.11242 11.472 8.35947 11.3933 8.64L9.82667 14.2133C9.81657 14.248 9.79552 14.2784 9.76667 14.3C9.73782 14.3216 9.70273 14.3333 9.66667 14.3333C9.63061 14.3333 9.59552 14.3216 9.56667 14.3C9.53782 14.2784 9.51676 14.248 9.50667 14.2133L5.82667 1.12C5.81657 1.08538 5.79552 1.05497 5.76667 1.03333C5.73782 1.0117 5.70273 1 5.66667 1C5.63061 1 5.59552 1.0117 5.56667 1.03333C5.53782 1.05497 5.51676 1.08538 5.50667 1.12L3.94 6.69333C3.86164 6.97277 3.69425 7.21901 3.46324 7.39468C3.23223 7.57034 2.95021 7.66584 2.66 7.66667H1" stroke="var(--stroke-0, #6A7282)" stroke-width="1.5" stroke-linecap="round" stroke-linejoin="round"/>
</svg>
