<svg width="12" height="18" viewBox="0 0 12 18" fill="none" xmlns="http://www.w3.org/2000/svg">
<path d="M0.00804293 17.4151C-0.00447647 17.3319 0.00135557 17.2488 0.00136374 17.1657C0.00179136 11.5704 0.00174248 5.97521 0.00177508 0.379975C0.00177508 0.121931 0.00193801 0.121731 0.252245 0.121691C0.913949 0.121586 1.57569 0.12558 2.23732 0.118721C2.38823 0.117157 2.43922 0.159096 2.43565 0.315313C2.4255 0.759588 2.4321 1.20425 2.4321 1.64875C2.4321 1.70237 2.43209 1.75598 2.43209 1.80799C2.67562 1.58005 2.90022 1.34543 3.1507 1.14275C3.36776 0.967102 3.61114 0.822901 3.84828 0.673317C4.19579 0.454102 4.57582 0.303192 4.97067 0.198812C5.24245 0.126964 5.52268 0.0820428 5.80167 0.0433159C6.53582 -0.0585951 7.26036 0.0261722 7.96616 0.225791C8.66718 0.424058 9.29005 0.781312 9.84939 1.25254C10.709 1.97674 11.2922 2.88556 11.6437 3.94192C11.8218 4.47736 11.9217 5.03223 11.9704 5.59932C12.0516 6.54436 11.9658 7.4722 11.7152 8.38016C11.5514 8.97381 11.2834 9.52947 10.9508 10.0533C10.5786 10.6397 10.1114 11.1389 9.55748 11.5483C9.16383 11.8391 8.73346 12.0752 8.26408 12.2406C7.81078 12.4003 7.34738 12.4745 6.87266 12.522C5.87119 12.622 4.93213 12.4287 4.0337 11.9848C3.58303 11.7622 3.16851 11.4899 2.78603 11.1678C2.66981 11.07 2.57427 10.9476 2.46926 10.8364C2.45607 10.8432 2.44289 10.85 2.42971 10.8568C2.42971 13.0325 2.42971 15.2082 2.42882 17.3994C1.62652 17.4151 0.825095 17.4151 0.00804293 17.4151ZM8.32783 9.46249C8.56293 9.18414 8.8337 8.92828 9.02639 8.62318C9.59093 7.72932 9.77209 6.73675 9.6513 5.69556C9.58409 5.11631 9.41593 4.5606 9.11917 4.04827C8.71132 3.34414 8.15184 2.80384 7.39548 2.50081C6.84861 2.28171 6.27843 2.18091 5.67482 2.24173C4.85423 2.32442 4.14491 2.63118 3.54896 3.18758C2.83049 3.85838 2.45048 4.71202 2.34356 5.67461C2.23376 6.6633 2.36956 7.61726 2.88325 8.49669C3.28748 9.18873 3.8377 9.71936 4.57296 10.0381C5.16043 10.2928 5.78394 10.3899 6.42068 10.3027C6.72822 10.2607 7.04646 10.1991 7.32551 10.0715C7.67141 9.91322 7.9817 9.67725 8.32783 9.46249Z" fill="#000781"/>
</svg>
