<svg width="173" height="28" viewBox="0 0 173 28" fill="none" xmlns="http://www.w3.org/2000/svg">
<g clip-path="url(#clip0_758_7502)">
<path d="M48.7422 28.0419C48.7265 27.9374 48.7338 27.8329 48.7338 27.7284C48.7344 20.6935 48.7343 13.6586 48.7343 6.62368C48.7343 6.29924 48.7345 6.29899 49.0492 6.29894C49.8812 6.2988 50.7132 6.30383 51.5451 6.2952C51.7348 6.29324 51.7989 6.34597 51.7944 6.54238C51.7817 7.10097 51.79 7.66003 51.79 8.21891C51.79 8.28633 51.79 8.35374 51.79 8.41913C52.0962 8.13253 52.3786 7.83755 52.6935 7.58271C52.9664 7.36187 53.2724 7.18057 53.5705 6.9925C54.0075 6.71688 54.4853 6.52714 54.9817 6.3959C55.3234 6.30557 55.6758 6.24909 56.0265 6.2004C56.9496 6.07226 57.8606 6.17884 58.748 6.42982C59.6294 6.6791 60.4125 7.12828 61.1158 7.72076C62.1965 8.63129 62.9298 9.77395 63.3717 11.1021C63.5957 11.7753 63.7213 12.473 63.7825 13.186C63.8845 14.3742 63.7767 15.5407 63.4617 16.6823C63.2557 17.4287 62.9187 18.1274 62.5006 18.786C62.0325 19.5233 61.4452 20.1509 60.7487 20.6656C60.2538 21.0313 59.7127 21.3281 59.1225 21.536C58.5526 21.7368 57.97 21.8302 57.3731 21.8898C56.1139 22.0156 54.9333 21.7725 53.8037 21.2144C53.237 20.9345 52.7159 20.5922 52.235 20.1873C52.0889 20.0642 51.9687 19.9103 51.8367 19.7706C51.8201 19.7791 51.8035 19.7876 51.787 19.7962C51.787 22.5317 51.787 25.2672 51.7859 28.0223C50.7771 28.0419 49.7695 28.0419 48.7422 28.0419ZM59.2027 18.0431C59.4983 17.6932 59.8387 17.3715 60.081 16.9879C60.7908 15.864 61.0186 14.6161 60.8667 13.307C60.7822 12.5787 60.5708 11.88 60.1976 11.2358C59.6848 10.3505 58.9814 9.67121 58.0304 9.29021C57.3429 9.01473 56.626 8.888 55.8671 8.96447C54.8353 9.06843 53.9435 9.45412 53.1942 10.1537C52.2909 10.9971 51.8131 12.0704 51.6787 13.2806C51.5406 14.5237 51.7114 15.7231 52.3572 16.8288C52.8655 17.6989 53.5572 18.3661 54.4817 18.7668C55.2203 19.087 56.0043 19.2091 56.8048 19.0996C57.1915 19.0467 57.5916 18.9693 57.9425 18.8088C58.3774 18.6098 58.7675 18.3132 59.2027 18.0431Z" fill="#000781"/>
<path d="M172.678 14.9025C172.653 14.9629 172.609 15.0016 172.604 15.0448C172.489 16.0057 172.196 16.9142 171.711 17.7449C171.418 18.2458 171.051 18.7074 170.686 19.1613C170.089 19.9038 169.321 20.4363 168.482 20.8774C167.656 21.3118 166.775 21.5475 165.856 21.6758C164.767 21.8279 163.701 21.7 162.661 21.3927C161.719 21.1145 160.862 20.6502 160.096 20.0283C159.36 19.4303 158.744 18.7297 158.267 17.9082C157.793 17.0928 157.449 16.2291 157.326 15.2917C157.258 14.7759 157.187 14.2512 157.21 13.7346C157.284 12.0564 157.805 10.5288 158.866 9.20381C159.343 8.60807 159.887 8.09126 160.515 7.64939C161.246 7.13522 162.041 6.78533 162.892 6.53357C163.775 6.27211 164.672 6.26109 165.582 6.29844C166.319 6.32865 167.014 6.51364 167.692 6.76245C168.521 7.06653 169.269 7.5178 169.947 8.092C170.675 8.70838 171.27 9.43281 171.728 10.2592C172.146 11.0111 172.441 11.8165 172.562 12.6765C172.581 12.811 172.617 12.9431 172.662 13.077C172.678 13.6795 172.678 14.2812 172.678 14.9025ZM168.206 11.7002C167.772 11.1081 167.21 10.6769 166.536 10.3931C165.881 10.1172 165.201 10.0613 164.498 10.1515C163.852 10.2341 163.275 10.4641 162.77 10.8665C162.547 11.0446 162.346 11.2526 162.145 11.4564C161.468 12.1413 161.175 12.993 161.155 13.9308C161.135 14.8728 161.44 15.7149 162.046 16.4545C162.805 17.3815 163.789 17.8518 164.963 17.8884C165.83 17.9153 166.621 17.6623 167.339 17.1296C168.406 16.3385 168.919 15.294 168.95 13.9908C168.97 13.1542 168.693 12.4075 168.206 11.7002Z" fill="#000782"/>
<path d="M86.9593 0.0419312C86.9791 7.18615 86.9792 14.3304 86.9792 21.4746C86.9792 21.7447 86.9787 21.7452 86.7017 21.7453C85.884 21.7455 85.0663 21.7455 84.2486 21.7454C83.925 21.7453 83.9247 21.7451 83.9246 21.4297C83.9246 17.8052 83.9249 14.1808 83.9245 10.5563C83.9242 7.06448 83.9232 3.57268 83.9196 0.0614122C84.9244 0.0419312 85.932 0.0419312 86.9593 0.0419312Z" fill="#000781"/>
<path d="M43.9628 0.0419312C44.0089 0.0675929 44.0311 0.107964 44.0623 0.116762C44.8194 0.330292 45.2411 0.840341 45.3156 1.60822C45.3839 2.3115 45.0211 3.03595 44.2371 3.33469C43.1355 3.75445 41.9341 2.93388 41.9393 1.73074C41.9423 1.05839 42.3899 0.325902 43.1053 0.151438C43.1634 0.137282 43.2157 0.0996659 43.27 0.0574409C43.494 0.0419307 43.7186 0.0419307 43.9628 0.0419312Z" fill="#000781"/>
<path d="M92.5804 0.0419312C92.6581 0.0796193 92.7114 0.136401 92.775 0.152137C93.787 0.402738 94.244 1.72655 93.6897 2.64827C93.0915 3.64288 91.4896 3.76697 90.7976 2.6225C90.4007 1.96591 90.4863 0.947458 91.2116 0.424949C91.4237 0.272191 91.6853 0.188145 91.9265 0.0572666C92.1395 0.0419299 92.3501 0.0419299 92.5804 0.0419312Z" fill="#000781"/>
<path d="M0.860107 2.57264C0.884463 2.55107 0.92864 2.54864 0.930337 2.53886C1.02684 1.98263 1.31431 1.52184 1.68634 1.11901C1.88799 0.900663 2.14873 0.736811 2.39873 0.56366C2.42779 0.696227 2.45222 0.813495 2.45241 0.930801C2.45494 2.52121 2.45494 4.11163 2.45232 5.70204C2.45214 5.81212 2.42627 5.92216 2.41234 6.03221C1.65805 5.57995 1.14712 4.94414 0.936729 4.08095C0.92748 4.04301 0.907973 4.00756 0.876676 3.97651C0.860107 3.96344 0.860107 3.94482 0.873609 3.91512C0.87811 3.88815 0.869109 3.87224 0.860107 3.85633C0.860107 3.49218 0.860107 3.12803 0.873609 2.74714C0.878109 2.71449 0.869108 2.69858 0.860107 2.68267C0.860107 2.65124 0.860107 2.6198 0.860107 2.57264Z" fill="#E502D0"/>
<path d="M0.860107 2.69312C0.869101 2.69855 0.878096 2.71445 0.873599 2.72746C0.860107 2.72455 0.860107 2.70359 0.860107 2.69312Z" fill="black"/>
<path d="M0.860107 3.86682C0.869102 3.87225 0.878096 3.88816 0.873599 3.90117C0.860107 3.89826 0.860107 3.8773 0.860107 3.86682Z" fill="black"/>
<path d="M27.2551 14.8383C27.2551 17.0665 27.2551 19.2737 27.255 21.4809C27.255 21.8049 27.2548 21.805 26.9212 21.805C26.0334 21.8051 25.1456 21.8003 24.258 21.809C24.0733 21.8108 24.0202 21.7555 24.0203 21.5716C24.0245 14.496 24.0243 7.42041 24.0208 0.344807C24.0207 0.174191 24.0673 0.116347 24.2444 0.116625C27.1243 0.121155 30.0044 0.0993848 32.884 0.128252C34.1959 0.141404 35.3504 0.642207 36.3581 1.48602C37.0303 2.049 37.5701 2.71426 37.9688 3.49214C38.3641 4.26323 38.5762 5.08433 38.6563 5.94849C38.7341 6.78697 38.6371 7.5998 38.4155 8.40575C38.1904 9.22446 37.8101 9.96484 37.2735 10.6184C36.9775 10.9789 36.6762 11.3507 36.3141 11.6379C35.4852 12.2954 34.5644 12.7793 33.4898 12.9216C33.099 12.9733 32.711 13.0032 32.3173 13.002C30.7166 12.9968 29.1158 13.0046 27.5152 12.9944C27.2948 12.993 27.2452 13.0612 27.2506 13.2669C27.2641 13.7834 27.255 14.3005 27.2551 14.8383ZM27.5672 9.88263C29.154 9.88264 30.7409 9.89465 32.3274 9.87335C32.6797 9.86862 33.0407 9.77873 33.3792 9.67033C33.8246 9.5277 34.1695 9.21827 34.4764 8.86885C35.2175 8.02475 35.4816 7.03818 35.3103 5.94307C35.1982 5.22625 34.8794 4.60824 34.3563 4.07947C33.8132 3.53054 33.1712 3.24549 32.4198 3.23707C30.7843 3.21874 29.1484 3.23481 27.5128 3.22756C27.316 3.22669 27.2496 3.27286 27.2504 3.48055C27.2579 5.5271 27.2582 7.57369 27.2502 9.62023C27.2493 9.83965 27.3229 9.91334 27.5672 9.88263Z" fill="#000782"/>
<path d="M118.183 6.99803C118.816 6.79541 119.423 6.54105 120.056 6.41915C120.644 6.30581 121.26 6.30037 121.862 6.30793C122.576 6.31689 123.27 6.48939 123.936 6.74622C124.949 7.13708 125.831 7.73606 126.539 8.55567C127.499 9.66702 128.062 10.9669 128.171 12.4367C128.224 13.1515 128.202 13.8718 128.217 14.5896C128.22 14.7123 128.177 14.7729 128.047 14.7604C127.985 14.7544 127.921 14.7596 127.859 14.7596C124.315 14.7596 120.771 14.7596 117.228 14.7596C116.902 14.7596 116.889 14.762 116.943 15.084C117.07 15.8373 117.354 16.5259 117.811 17.144C118.437 17.9914 119.281 18.5236 120.275 18.8143C120.683 18.9336 121.12 18.9592 121.544 19.0195C121.728 19.0456 121.915 19.0734 122.099 19.0631C123.136 19.005 124.137 18.8207 124.996 18.1771C125.327 17.9291 125.654 17.6755 125.995 17.4412C126.042 17.4085 126.195 17.4437 126.233 17.4957C126.685 18.1133 127.125 18.739 127.563 19.3669C127.589 19.4049 127.588 19.5081 127.559 19.5315C127.233 19.7975 126.916 20.0818 126.562 20.3056C126.146 20.5683 125.713 20.8185 125.256 20.9971C124.678 21.2233 124.071 21.3783 123.473 21.5525C122.725 21.7706 121.954 21.7928 121.187 21.7367C120.623 21.6953 120.058 21.5949 119.505 21.4701C119.073 21.3726 118.653 21.2134 118.239 21.0508C117.962 20.9418 117.696 20.7953 117.442 20.6373C116.509 20.055 115.706 19.3318 115.111 18.3975C114.44 17.3436 114.033 16.2019 113.984 14.9442C113.967 14.5359 113.906 14.1246 113.937 13.7203C113.994 13.0009 114.078 12.2826 114.301 11.5871C114.636 10.5415 115.141 9.59992 115.852 8.7545C116.416 8.08254 117.097 7.58107 117.855 7.16469C117.958 7.1082 118.064 7.05748 118.183 6.99803ZM122.767 9.23053C122.311 9.15935 121.858 9.04977 121.4 9.02905C121.03 9.01229 120.653 9.09054 120.283 9.14831C119.776 9.2274 119.302 9.41211 118.86 9.66983C118.196 10.0559 117.719 10.6194 117.388 11.2996C117.224 11.638 117.128 12.0094 116.99 12.3954C117.134 12.4017 117.224 12.4091 117.313 12.4091C119.855 12.4097 122.398 12.4096 124.94 12.4095C124.996 12.4095 125.063 12.4271 125.105 12.4033C125.158 12.3743 125.23 12.3064 125.225 12.2616C125.174 11.699 125.004 11.1779 124.681 10.7061C124.209 10.015 123.566 9.54903 122.767 9.23053Z" fill="#000781"/>
<path d="M75.1241 18.9862C75.9196 18.9288 76.6458 18.7045 77.2949 18.2689C77.6782 18.0117 78.0359 17.7164 78.4112 17.4467C78.4859 17.393 78.5828 17.3087 78.6784 17.4451C79.1372 18.1 79.5997 18.7524 80.0941 19.4527C79.7669 19.7129 79.4608 19.9834 79.1279 20.2156C78.3451 20.7618 77.4659 21.1133 76.5568 21.376C76.0108 21.5338 75.4455 21.6586 74.881 21.7086C74.3386 21.7566 73.7853 21.7017 73.2382 21.669C72.5254 21.6263 71.8379 21.4517 71.1679 21.2101C70.3531 20.9162 69.6126 20.483 68.9547 19.9273C67.9313 19.063 67.203 17.9869 66.7962 16.7066C66.4525 15.6244 66.3316 14.5128 66.4665 13.385C66.5374 12.7927 66.635 12.199 66.782 11.6215C66.9704 10.8817 67.3174 10.2031 67.7252 9.55608C68.1035 8.95586 68.5842 8.45012 69.1145 7.98469C69.7915 7.39054 70.5753 6.98667 71.4238 6.7127C72.0983 6.49489 72.7895 6.3592 73.5061 6.32297C74.2023 6.28778 74.8836 6.33594 75.5563 6.49483C76.1966 6.64606 76.8044 6.88858 77.3718 7.22769C78.2912 7.77728 79.0468 8.49558 79.6169 9.40312C80.1746 10.2908 80.5124 11.2636 80.624 12.2999C80.691 12.9214 80.6672 13.5532 80.6748 14.1805C80.6818 14.7575 80.6762 14.7576 80.0985 14.7576C76.6241 14.7576 73.1498 14.7576 69.6754 14.7576C69.5857 14.7576 69.496 14.7576 69.3853 14.7576C69.4656 15.5079 69.6821 16.1876 70.0666 16.8144C70.5007 17.5222 71.0942 18.0662 71.8293 18.4341C72.317 18.6782 72.8311 18.8888 73.3869 18.935C73.8777 18.9759 74.37 18.9989 74.862 19.024C74.9432 19.0282 75.0259 19.0024 75.1241 18.9862ZM74.4155 9.05784C74.0503 9.05848 73.682 9.02873 73.3205 9.06587C72.4795 9.15226 71.6977 9.39791 70.999 9.91133C70.2264 10.479 69.8002 11.2469 69.5647 12.1442C69.496 12.4063 69.5142 12.4124 69.7828 12.4125C71.209 12.413 72.6352 12.4127 74.0614 12.4127C75.2009 12.4127 76.3405 12.4132 77.48 12.4122C77.7052 12.412 77.7279 12.3837 77.6847 12.1705C77.6502 12.0002 77.616 11.8298 77.5746 11.6612C77.3963 10.9335 76.9651 10.3665 76.4029 9.89914C75.8391 9.43036 75.1784 9.16096 74.4155 9.05784Z" fill="#000781"/>
<path d="M107.74 20.5808C107.74 17.9338 107.747 15.3076 107.735 12.6816C107.732 11.943 107.658 11.207 107.355 10.5163C107.01 9.72712 106.403 9.2643 105.564 9.1023C105.342 9.05937 105.112 9.01052 104.889 9.02343C104.014 9.07407 103.139 9.12282 102.366 9.62675C101.387 10.2649 100.737 11.1026 100.652 12.3054C100.634 12.5482 100.616 12.7917 100.616 13.0348C100.613 15.8635 100.614 18.6921 100.614 21.5208C100.614 21.5895 100.614 21.6581 100.614 21.7454C100.507 21.7454 100.418 21.7454 100.33 21.7453C99.5051 21.7453 98.6803 21.7411 97.8556 21.7487C97.6805 21.7503 97.6307 21.6938 97.6308 21.5212C97.6347 16.5274 97.6348 11.5336 97.6307 6.53985C97.6306 6.36118 97.6761 6.29355 97.8648 6.29539C98.7105 6.30367 99.5563 6.30233 100.402 6.29606C100.564 6.29485 100.62 6.34219 100.618 6.51019C100.609 7.21551 100.614 7.92098 100.614 8.6264C100.614 8.69338 100.614 8.76035 100.614 8.86434C101.041 8.31736 101.493 7.85262 102.03 7.47937C102.917 6.86261 103.884 6.44578 104.969 6.33047C105.921 6.22938 106.854 6.32623 107.75 6.65105C108.611 6.96342 109.3 7.51352 109.792 8.30025C110.292 9.09837 110.525 9.98377 110.634 10.9011C110.711 11.5491 110.751 12.2052 110.753 12.858C110.766 15.7215 110.759 18.5851 110.759 21.4487C110.759 21.7448 110.758 21.7452 110.458 21.7453C109.626 21.7455 108.795 21.7412 107.963 21.7487C107.79 21.7502 107.729 21.6997 107.736 21.5236C107.749 21.2168 107.74 20.9091 107.74 20.5808Z" fill="#000781"/>
<path d="M134.63 9.47302C134.038 9.46022 133.463 9.48194 132.895 9.42583C132.167 9.35382 131.514 8.66089 131.56 7.78832C131.597 7.08878 132.075 6.49223 132.754 6.3211C132.887 6.28763 133.032 6.29456 133.171 6.29448C135.492 6.29299 137.813 6.29252 140.133 6.29397C140.64 6.29429 141.029 6.55501 141.215 7.03663C141.392 7.49644 141.296 7.91535 140.963 8.27439C140.457 8.81987 139.944 9.35885 139.436 9.9026C138.905 10.4712 138.375 11.0418 137.847 11.613C137.817 11.6454 137.802 11.691 137.78 11.7282C138.113 11.8276 138.436 11.9089 138.748 12.02C139.565 12.3108 140.254 12.7876 140.827 13.4427C141.354 14.0453 141.691 14.7348 141.86 15.5121C142.044 16.3547 141.989 17.1831 141.742 18.0074C141.532 18.7096 141.161 19.3098 140.678 19.8557C140.027 20.592 139.225 21.1007 138.309 21.4172C137.415 21.7258 136.486 21.8069 135.54 21.7205C134.848 21.6572 134.179 21.512 133.539 21.2466C132.785 20.9344 132.149 20.4491 131.597 19.8559C131.091 19.3119 131.042 18.4614 131.463 17.8262C131.949 17.0945 132.799 16.983 133.467 17.2569C133.653 17.333 133.814 17.4861 133.964 17.6274C134.45 18.0845 134.986 18.4452 135.653 18.5823C136.49 18.7543 137.268 18.6392 137.911 18.0513C138.225 17.7648 138.433 17.3907 138.51 16.9515C138.593 16.4782 138.564 16.0175 138.366 15.5855C138.082 14.9627 137.554 14.6617 136.895 14.5441C136.26 14.431 135.653 14.5833 135.038 14.6861C134.173 14.8307 133.476 14.1204 133.42 13.3995C133.375 12.819 133.674 12.4076 134.033 12.0135C134.341 11.676 134.641 11.3317 134.951 10.9962C135.201 10.7264 135.461 10.4666 135.714 10.2C135.915 9.98834 136.111 9.77306 136.32 9.54832C135.751 9.52263 135.201 9.49779 134.63 9.47302Z" fill="#000781"/>
<path d="M151.162 7.64651C151.234 8.26587 150.907 8.71335 150.588 9.16524C150.15 9.78459 149.716 10.4061 149.282 11.0283C149.228 11.1062 149.188 11.1942 149.11 11.3335C149.254 11.3054 149.345 11.2959 149.431 11.2693C149.873 11.1327 150.321 11.0407 150.786 11.0689C151.945 11.1391 152.936 11.5772 153.774 12.3868C154.426 13.0159 154.905 13.7451 155.15 14.6144C155.245 14.9526 155.274 15.3104 155.322 15.6607C155.415 16.3325 155.331 16.9952 155.163 17.644C154.911 18.6231 154.416 19.4673 153.691 20.1783C152.919 20.9344 151.996 21.3809 150.943 21.5948C149.755 21.8364 148.596 21.73 147.483 21.274C146.137 20.7224 145.161 19.756 144.548 18.4406C144.268 17.8392 144.126 17.2001 144.096 16.5262C144.04 15.2495 144.327 14.0544 144.839 12.8986C145.414 11.6026 146.117 10.3789 146.896 9.19603C147.317 8.55652 147.725 7.90824 148.144 7.26744C148.401 6.87457 148.675 6.48014 149.158 6.35361C149.706 6.21028 150.22 6.29686 150.662 6.6879C150.948 6.94131 151.089 7.26426 151.162 7.64651ZM149.952 18.6053C150.553 18.5986 151.061 18.3641 151.471 17.9365C152.218 17.1566 152.287 15.7999 151.71 14.9751C150.792 13.6643 149.12 13.5827 148.055 14.6325C147.484 15.1946 147.289 15.9251 147.452 16.7292C147.552 17.2188 147.764 17.6583 148.128 17.9945C148.626 18.4534 149.225 18.6738 149.952 18.6053Z" fill="#000782"/>
<path d="M92.9355 6.29887C93.2081 6.29904 93.4597 6.3028 93.7111 6.29787C93.8448 6.29525 93.9069 6.34711 93.8948 6.48315C93.8905 6.53164 93.8944 6.58084 93.8944 6.62971C93.8945 11.5591 93.8945 16.4885 93.8944 21.4179C93.8944 21.7452 93.8942 21.7453 93.5618 21.7453C92.7373 21.7454 91.9127 21.7411 91.0883 21.7487C90.9067 21.7503 90.8337 21.7125 90.8339 21.5084C90.8397 16.5162 90.8394 11.5239 90.8346 6.53171C90.8344 6.34733 90.8852 6.29179 91.07 6.29492C91.6847 6.30537 92.2997 6.29886 92.9355 6.29887Z" fill="#000781"/>
<path d="M42.1696 17.0599C42.1696 13.5681 42.1696 10.0972 42.1697 6.62642C42.1697 6.31785 42.17 6.31759 42.4774 6.31753C43.3091 6.31739 44.1408 6.32223 44.9724 6.31383C45.156 6.31197 45.2115 6.36756 45.2114 6.55201C45.207 11.5383 45.207 16.5245 45.2114 21.5108C45.2116 21.6942 45.1593 21.7509 44.9744 21.749C44.1219 21.7404 43.2691 21.7401 42.4166 21.7491C42.2255 21.7511 42.1648 21.6956 42.1658 21.5014C42.1729 20.0279 42.1696 18.5544 42.1696 17.0599Z" fill="#000782"/>
<path d="M21.1061 21.3587C20.5684 21.652 20.013 21.7935 19.4107 21.7811C18.6896 21.7662 18.0547 21.5307 17.4992 21.0841C16.6205 20.3777 16.2632 19.4355 16.3382 18.3332C16.3822 17.6854 16.6334 17.1085 17.0528 16.5968C17.5359 16.0072 18.1529 15.6426 18.8836 15.5131C19.8574 15.3406 20.7544 15.5504 21.5288 16.2051C22.368 16.9145 22.7032 17.8287 22.6379 18.9001C22.5986 19.5448 22.3395 20.1089 21.9499 20.6264C21.7199 20.9319 21.4115 21.1293 21.1061 21.3587Z" fill="#008CFE"/>
<path d="M18.1849 0.127869C18.8518 0.150917 19.5341 0.0929019 20.1821 0.215448C21.2324 0.414045 21.9635 1.09287 22.377 2.07215C22.8683 3.23573 22.6006 4.69975 21.6342 5.58684C21.1103 6.06774 20.5232 6.38007 19.8099 6.41831C19.2957 6.44589 18.78 6.44576 18.242 6.43745C18.2076 6.31367 18.1861 6.21044 18.186 6.1072C18.1842 4.11409 18.1848 2.12098 18.1849 0.127869Z" fill="#851AFE"/>
<path d="M18.1656 0.123757C18.1848 2.12095 18.1842 4.11406 18.186 6.10717C18.1861 6.21042 18.2076 6.31364 18.2226 6.43373C17.54 6.45308 16.8537 6.45558 16.1446 6.43755C16.1102 6.31381 16.0888 6.2106 16.0887 6.10737C16.0866 4.23311 16.0857 2.35885 16.0908 0.484605C16.0911 0.365436 16.1431 0.246408 16.1711 0.127314C16.8295 0.124767 17.4879 0.12222 18.1656 0.123757Z" fill="#8D18FB"/>
<path d="M9.75337 0.126177C10.3696 0.123671 10.9858 0.121166 11.6176 0.138354C11.6077 0.27848 11.5604 0.398854 11.5601 0.519352C11.5553 2.29864 11.5584 4.07795 11.5547 5.85724C11.5543 6.06806 11.5525 6.27301 11.6834 6.45266C11.067 6.45523 10.4506 6.4578 9.81091 6.441C9.76208 6.30139 9.71472 6.1812 9.7144 6.06089C9.70965 4.26952 9.70987 2.47813 9.71297 0.686749C9.71329 0.499869 9.73928 0.313033 9.75337 0.126177Z" fill="#AD10EC"/>
<path d="M9.73405 0.122051C9.73928 0.313033 9.71328 0.499868 9.71296 0.686748C9.70987 2.47813 9.70964 4.26952 9.7144 6.06089C9.71472 6.1812 9.76207 6.30139 9.79162 6.43715C9.20723 6.45525 8.61876 6.45784 8.0073 6.44176C7.94468 6.27338 7.87121 6.12381 7.87056 5.97392C7.86263 4.1486 7.86459 2.32323 7.86722 0.497881C7.8674 0.373995 7.89349 0.250146 7.90753 0.12628C8.50993 0.123495 9.11233 0.12071 9.73405 0.122051Z" fill="#B80DE7"/>
<path d="M16.1518 0.12329C16.1431 0.246389 16.0911 0.365417 16.0908 0.484586C16.0857 2.35883 16.0866 4.2331 16.0887 6.10735C16.0888 6.21058 16.1102 6.31379 16.1252 6.43388C15.6102 6.45328 15.0917 6.45582 14.549 6.44092C14.3841 6.32564 14.3637 6.18857 14.3642 6.02557C14.3692 4.24042 14.3683 2.45525 14.366 0.670096C14.3658 0.468874 14.3482 0.267853 14.5349 0.127238C15.0674 0.124587 15.6 0.121937 16.1518 0.12329Z" fill="#9616F7"/>
<path d="M7.88823 0.122182C7.89349 0.250161 7.8674 0.37401 7.86722 0.497896C7.8646 2.32325 7.86263 4.14862 7.87056 5.97394C7.87121 6.12382 7.94468 6.27339 7.98801 6.43793C7.48714 6.45527 6.98258 6.4578 6.45478 6.44093C6.40612 6.30128 6.35887 6.18107 6.35856 6.06075C6.35387 4.20682 6.35609 2.35286 6.3535 0.498921C6.35333 0.37496 6.32754 0.251035 6.31366 0.127093C6.83208 0.124085 7.3505 0.121077 7.88823 0.122182Z" fill="#C30AE2"/>
<path d="M11.7026 6.45646C11.5525 6.27298 11.5543 6.06803 11.5547 5.85721C11.5584 4.07792 11.5553 2.29861 11.5601 0.519324C11.5604 0.398826 11.6077 0.278452 11.6369 0.142368C12.1311 0.124249 12.6215 0.121784 13.1278 0.137731C12.9946 0.287122 12.979 0.454564 12.9796 0.643342C12.9854 2.43126 12.9801 4.21922 12.9885 6.00711C12.9892 6.15529 13.0665 6.30311 13.1082 6.4511C12.6461 6.45416 12.184 6.45723 11.7026 6.45646Z" fill="#A412F0"/>
<path d="M6.29432 0.12308C6.32753 0.25101 6.35333 0.374936 6.3535 0.498897C6.35609 2.35284 6.35387 4.20679 6.35856 6.06073C6.35887 6.18105 6.40612 6.30125 6.43546 6.43704C5.97682 6.45516 5.51425 6.45775 5.03099 6.43904C4.99721 6.28651 4.97288 6.15529 4.9727 6.02404C4.97021 4.18245 4.97181 2.34085 4.96921 0.499261C4.96904 0.375206 4.94314 0.251186 4.9292 0.12715C5.37779 0.124464 5.82638 0.121778 6.29432 0.12308Z" fill="#CC08DD"/>
<path d="M13.1276 6.4547C13.0665 6.30311 12.9892 6.1553 12.9885 6.00712C12.9801 4.21922 12.9854 2.43126 12.9796 0.643347C12.979 0.45457 12.9946 0.287127 13.1471 0.141718C13.5992 0.124622 14.0478 0.121957 14.5156 0.123277C14.3482 0.267879 14.3658 0.4689 14.366 0.670122C14.3683 2.45528 14.3692 4.24045 14.3641 6.02559C14.3637 6.18859 14.3841 6.32566 14.5295 6.43733C14.0719 6.45355 13.6095 6.45593 13.1276 6.4547Z" fill="#9D14F3"/>
<path d="M4.90988 0.123186C4.94313 0.251212 4.96904 0.375232 4.96921 0.499287C4.97181 2.34088 4.97021 4.18248 4.9727 6.02407C4.97288 6.15532 4.99721 6.28653 5.01167 6.4352C4.58952 6.44576 4.166 6.43887 3.72621 6.40456C3.69683 6.24593 3.67248 6.11473 3.67232 5.9835C3.66988 4.04464 3.67066 2.10577 3.67068 0.166908C3.86162 0.150428 4.05229 0.126528 4.24358 0.119437C4.45894 0.111454 4.67487 0.11862 4.90988 0.123186Z" fill="#D506D9"/>
<path d="M15.7938 14.0781C15.4151 14.0807 15.0364 14.0833 14.6384 14.0627C14.6193 11.9542 14.6195 9.86873 14.6198 7.78331C14.9118 7.77798 15.2038 7.77264 15.5308 7.77615C15.6421 7.79087 15.7186 7.79674 15.7947 7.82186C15.7942 9.9201 15.794 11.9991 15.7938 14.0781Z" fill="#4551FD"/>
<path d="M10.3394 13.7617C9.61723 13.4481 9.13889 12.8976 8.82036 12.1943C8.6293 11.7724 8.54222 11.3249 8.55796 10.8654C8.58593 10.0488 8.85789 9.32947 9.44386 8.73786C9.70363 8.47559 9.97837 8.24233 10.3291 8.11273C10.34 10.0095 10.3397 11.8856 10.3394 13.7617Z" fill="#7922FD"/>
<path d="M3.65212 0.162537C3.67066 2.10579 3.66989 4.04466 3.67232 5.98352C3.67249 6.11475 3.69683 6.24595 3.71124 6.3947C3.25014 6.42151 2.83248 6.27395 2.42464 6.04056C2.42629 5.92217 2.45216 5.81213 2.45234 5.70205C2.45496 4.11164 2.45497 2.52122 2.45243 0.930809C2.45225 0.813503 2.42782 0.696235 2.41331 0.56126C2.78678 0.312605 3.19206 0.178038 3.65212 0.162537Z" fill="#DD04D5"/>
<path d="M19.0663 14.0778C18.7015 14.0804 18.3367 14.0829 17.9525 14.0624C17.9332 11.9607 17.9333 9.88204 17.953 7.80128C18.3368 7.80057 18.7012 7.80197 19.0655 7.82258C19.0658 9.92045 19.066 11.9991 19.0663 14.0778Z" fill="#266CFF"/>
<path d="M15.8131 14.082C15.794 11.9991 15.7942 9.92015 15.8141 7.81974C16.1983 7.79994 16.5628 7.80156 16.927 7.82239C16.9267 9.9204 16.9266 11.9992 16.9266 14.078C16.5619 14.0806 16.1971 14.0832 15.8131 14.082Z" fill="#395AFE"/>
<path d="M19.0855 14.0816C19.066 11.9991 19.0657 9.92044 19.085 7.82046C19.2774 7.78916 19.4504 7.77919 19.6234 7.76921C19.6472 7.76873 19.6711 7.76824 19.7221 7.77653C19.7606 7.78749 19.7719 7.78968 19.7832 7.79188C19.9105 7.80801 20.0378 7.82415 20.1816 7.86433C20.1982 9.92417 20.1983 11.96 20.1983 13.9957C19.8438 14.1477 19.4704 14.0701 19.0855 14.0816Z" fill="#1B76FF"/>
<path d="M10.3504 13.7735C10.3397 11.8856 10.34 10.0095 10.3403 8.11407C10.6602 7.88364 11.0287 7.82766 11.4123 7.76365C11.4296 7.7627 11.4304 7.75909 11.4304 7.75909C11.4524 7.76335 11.4743 7.76761 11.5046 7.7964C11.4995 7.96625 11.4748 8.11155 11.4746 8.25689C11.4719 10.1974 11.4726 12.1379 11.4725 14.0784C11.0766 14.0778 10.7138 13.9513 10.3504 13.7735Z" fill="#6D2EFE"/>
<path d="M14.601 7.77708C14.6195 9.8687 14.6193 11.9541 14.6191 14.0588C14.2684 14.0807 13.9176 14.0833 13.5476 14.0626C13.5289 11.9601 13.5296 9.88069 13.5447 7.79738C13.577 7.78493 13.5947 7.77644 13.6125 7.76794C13.9357 7.76892 14.2589 7.7699 14.601 7.77708Z" fill="#4F47FD"/>
<path d="M11.4919 14.0821C11.4727 12.1379 11.4719 10.1974 11.4746 8.25688C11.4749 8.11154 11.4995 7.96624 11.514 7.80246C11.5234 7.77967 11.5316 7.77533 11.5697 7.77717C11.9077 7.7892 12.2158 7.79506 12.5234 7.82028C12.5224 9.91903 12.5219 11.9984 12.5214 14.0778C12.1847 14.0805 11.848 14.0831 11.4919 14.0821Z" fill="#6336FF"/>
<path d="M16.9459 14.0818C16.9266 11.9992 16.9267 9.9204 16.9464 7.82028C17.2886 7.80044 17.611 7.80191 17.9335 7.80339C17.9333 9.88203 17.9332 11.9607 17.9333 14.0586C17.6107 14.0804 17.2879 14.083 16.9459 14.0818Z" fill="#3063FF"/>
<path d="M12.5407 14.0818C12.5219 11.9984 12.5224 9.91905 12.5426 7.81771C12.885 7.79765 13.2076 7.79952 13.5302 7.80138C13.5296 9.88075 13.5289 11.9601 13.5283 14.0588C13.2055 14.0806 12.8828 14.0831 12.5407 14.0818Z" fill="#5A3FFF"/>
<path d="M20.2144 13.999C20.1983 11.9599 20.1982 9.92414 20.1981 7.86951C20.5435 8.00232 20.8888 8.15399 21.239 8.33459C21.2307 8.48043 21.2067 8.59731 21.2065 8.71423C21.204 10.2181 21.2058 11.722 21.2029 13.2259C21.2027 13.3426 21.176 13.4593 21.1616 13.5759C20.9055 13.8365 20.5502 13.8806 20.2144 13.999Z" fill="#117EFE"/>
<path d="M21.1758 13.5721C21.176 13.4593 21.2027 13.3426 21.2029 13.2259C21.2058 11.722 21.2039 10.2181 21.2065 8.71422C21.2067 8.5973 21.2307 8.48042 21.2476 8.34546C22.2539 9.02852 22.6868 10.0125 22.5959 11.2061C22.5196 12.2073 22.0571 13.0178 21.1758 13.5721Z" fill="#0786FD"/>
<path d="M17.953 7.80124C17.611 7.80188 17.2886 7.8004 16.9467 7.80103C16.5628 7.80152 16.1983 7.7999 15.8145 7.80045C15.7186 7.79675 15.6421 7.79088 15.5482 7.77696C15.5851 7.7604 15.6394 7.74452 15.6938 7.74445C16.9583 7.74293 18.2228 7.74304 19.4873 7.74337C19.522 7.74338 19.5567 7.74913 19.6074 7.7607C19.4504 7.77916 19.2775 7.78914 19.085 7.80122C18.7012 7.80193 18.3368 7.80053 17.953 7.80124Z" fill="#124296"/>
<path d="M13.5447 7.79744C13.2076 7.79952 12.885 7.79766 12.5432 7.79837C12.2158 7.79508 11.9077 7.78922 11.5835 7.77507C12.2391 7.76243 12.9108 7.75809 13.5975 7.76088C13.5947 7.77651 13.577 7.785 13.5447 7.79744Z" fill="#124296"/>
<path d="M19.7806 7.78262C19.7719 7.78965 19.7606 7.78746 19.7341 7.77722C19.7385 7.77059 19.7582 7.77199 19.7806 7.78262Z" fill="#124296"/>
<path d="M11.4293 7.76026C11.4306 7.75897 11.4297 7.76308 11.432 7.76323C11.4343 7.76337 11.4279 7.76155 11.4293 7.76026Z" fill="#4F47FD"/>
</g>
<defs>
<clipPath id="clip0_758_7502">
<rect width="171.818" height="28" fill="white" transform="translate(0.818176)"/>
</clipPath>
</defs>
</svg>
